<svg width="31" height="31" viewBox="0 0 31 31" fill="none" xmlns="http://www.w3.org/2000/svg">
<g clip-path="url(#clip0_103_5)">
<path d="M10.6278 19.3879H7.75V16.7917H10.6705C13.0962 16.7917 13.2577 19.3879 10.6278 19.3879ZM19.3569 15.9301H23.2552C23.104 13.7149 19.7289 13.3765 19.3569 15.9301ZM10.5684 11.625H7.75V14.2083H10.8358C12.9967 14.2083 13.3377 11.625 10.5684 11.625ZM31 6.45833V24.5417C31 28.108 28.1092 31 24.5417 31H6.45833C2.89075 31 0 28.108 0 24.5417V6.45833C0 2.89204 2.89075 0 6.45833 0H24.5417C28.1092 0 31 2.89204 31 6.45833ZM18.0833 10.3333H24.5417V9.04167H18.0833V10.3333ZM13.4953 15.0066C15.9585 13.7485 15.8681 9.1295 11.1535 9.05975H5.16667V21.948H10.735C16.576 21.948 16.4765 16.0916 13.4953 15.0066ZM25.7494 15.7842C25.3955 13.507 23.7757 11.9738 21.1213 11.9738C18.4166 11.9738 16.7917 13.7046 16.7917 17.072C16.7917 20.4703 18.5574 21.9583 21.204 21.9583C23.8506 21.9583 25.2159 20.4923 25.5957 19.375H22.869C21.9183 20.4794 19.1322 20.048 19.2949 17.6274H25.8307C25.8437 16.8085 25.8152 16.2207 25.7494 15.7842Z" fill="#C3CAD1"/>
</g>
<defs>
<clipPath id="clip0_103_5">
<rect width="31" height="31" fill="white"/>
</clipPath>
</defs>
</svg>
