<svg width="22" height="22" viewBox="0 0 22 22" fill="none" xmlns="http://www.w3.org/2000/svg">
<path d="M18.9457 2.91864H3.05435C1.36757 2.91864 0 4.28621 0 5.97299V16.027C0 17.7138 1.36757 19.0813 3.05435 19.0813H18.9457C20.6324 19.0813 22 17.7138 22 16.027V5.97299C22 4.28621 20.6324 2.91864 18.9457 2.91864ZM7.65557 13.8239L3.37846 17.4728C3.07678 17.7303 2.62324 17.6945 2.36582 17.3925C2.10835 17.0908 2.14414 16.6373 2.44617 16.3798L6.72328 12.7309C7.02492 12.4735 7.47841 12.5093 7.73588 12.8113C7.99335 13.1129 7.95755 13.5665 7.65557 13.8239ZM11 12.4367C10.4279 12.4353 9.87336 12.2452 9.4398 11.8702L9.44015 11.8706L9.43877 11.8695C9.43912 11.8699 9.4395 11.8699 9.4398 11.8702L2.87727 6.17434C2.57735 5.91403 2.54543 5.46054 2.80534 5.16101C3.06561 4.86109 3.51914 4.82916 3.81863 5.08908L10.383 10.7864C10.5233 10.9113 10.7545 11.0014 11 11C11.2452 11.0007 11.4724 10.913 11.6205 10.7839L11.6236 10.7811L18.1813 5.08912C18.4809 4.8292 18.9344 4.86113 19.1947 5.16105C19.4545 5.46054 19.4226 5.91408 19.1227 6.17438L12.5584 11.872C12.1263 12.243 11.5724 12.436 11 12.4367ZM19.6345 17.3925C19.377 17.6945 18.9235 17.7303 18.6219 17.4728L14.3448 13.8239C14.0428 13.5664 14.007 13.1129 14.2645 12.8113C14.5219 12.5093 14.9754 12.4735 15.2771 12.7309L19.5542 16.3798C19.8562 16.6373 19.892 17.0908 19.6345 17.3925Z" fill="#C3CAD1"/>
</svg>
