<svg width="158" height="25" viewBox="0 0 158 25" fill="none" xmlns="http://www.w3.org/2000/svg">
<path d="M5.264 4.544V10.512H13.008V14.144H5.264V20.24H15.216V24H0.432V0.783998H15.216V4.544H5.264ZM45.367 0.783998V24H41.127V9.744C41.127 9.44533 41.1323 9.12533 41.143 8.784C41.1643 8.44267 41.1963 8.096 41.239 7.744L34.599 20.336C34.2363 21.0293 33.6763 21.376 32.919 21.376H32.247C31.8737 21.376 31.543 21.2907 31.255 21.12C30.967 20.9387 30.7377 20.6773 30.567 20.336L23.895 7.696C23.927 8.06933 23.9537 8.432 23.975 8.784C23.9963 9.12533 24.007 9.44533 24.007 9.744V24H19.767V0.783998H23.415C23.6177 0.783998 23.799 0.789332 23.959 0.799999C24.119 0.810665 24.2577 0.842665 24.375 0.895998C24.503 0.938665 24.615 1.01333 24.711 1.12C24.8177 1.216 24.919 1.35467 25.015 1.536L31.511 13.92C31.7137 14.2933 31.9003 14.6773 32.071 15.072C32.2523 15.4667 32.423 15.872 32.583 16.288C32.743 15.8613 32.9083 15.4453 33.079 15.04C33.2603 14.6347 33.4523 14.2453 33.655 13.872L40.103 1.536C40.199 1.35467 40.3003 1.216 40.407 1.12C40.5137 1.01333 40.6257 0.938665 40.743 0.895998C40.871 0.842665 41.0097 0.810665 41.159 0.799999C41.319 0.789332 41.5057 0.783998 41.719 0.783998H45.367ZM55.9965 4.544V10.512H63.7405V14.144H55.9965V20.24H65.9485V24H51.1645V0.783998H65.9485V4.544H55.9965ZM77.7635 11.776C78.5422 11.776 79.2142 11.68 79.7795 11.488C80.3448 11.2853 80.8088 11.0133 81.1715 10.672C81.5342 10.32 81.8008 9.90933 81.9715 9.44C82.1422 8.97067 82.2275 8.45867 82.2275 7.904C82.2275 6.80533 81.8595 5.952 81.1235 5.344C80.3982 4.736 79.2888 4.432 77.7955 4.432H75.2995V11.776H77.7635ZM89.0115 24H84.6755C83.8648 24 83.2782 23.6907 82.9155 23.072L78.4995 15.952C78.3182 15.6747 78.1155 15.472 77.8915 15.344C77.6782 15.216 77.3582 15.152 76.9315 15.152H75.2995V24H70.4995V0.783998H77.7955C79.4168 0.783998 80.8035 0.954666 81.9555 1.296C83.1075 1.62667 84.0515 2.09067 84.7875 2.688C85.5235 3.28533 86.0622 4 86.4035 4.832C86.7448 5.65333 86.9155 6.56 86.9155 7.552C86.9155 8.32 86.8035 9.05067 86.5795 9.744C86.3662 10.4267 86.0515 11.0507 85.6355 11.616C85.2195 12.1813 84.7075 12.6827 84.0995 13.12C83.4915 13.5573 82.7982 13.9093 82.0195 14.176C82.3288 14.3467 82.6168 14.5547 82.8835 14.8C83.1502 15.0347 83.3902 15.3173 83.6035 15.648L89.0115 24ZM104.817 5.232C104.667 5.47733 104.513 5.65867 104.353 5.776C104.203 5.88267 104.006 5.936 103.761 5.936C103.526 5.936 103.27 5.856 102.993 5.696C102.726 5.52533 102.411 5.344 102.049 5.152C101.686 4.96 101.27 4.784 100.801 4.624C100.331 4.45333 99.7821 4.368 99.1527 4.368C98.0434 4.368 97.2114 4.61867 96.6567 5.12C96.1021 5.61067 95.8247 6.256 95.8247 7.056C95.8247 7.568 95.9741 7.99467 96.2727 8.336C96.5821 8.66667 96.9821 8.95467 97.4727 9.2C97.9741 9.44533 98.5394 9.664 99.1687 9.856C99.7981 10.048 100.443 10.2613 101.105 10.496C101.766 10.72 102.411 10.9867 103.041 11.296C103.67 11.6053 104.23 11.9947 104.721 12.464C105.222 12.9333 105.622 13.5093 105.921 14.192C106.23 14.864 106.385 15.6853 106.385 16.656C106.385 17.712 106.198 18.704 105.825 19.632C105.462 20.5493 104.934 21.3547 104.241 22.048C103.547 22.7307 102.689 23.2693 101.665 23.664C100.651 24.0587 99.4994 24.256 98.2087 24.256C97.4727 24.256 96.7367 24.1813 96.0007 24.032C95.2754 23.8827 94.5714 23.6747 93.8887 23.408C93.2167 23.1413 92.5821 22.8213 91.9847 22.448C91.3874 22.0747 90.8647 21.6587 90.4167 21.2L91.8247 18.928C91.9421 18.7573 92.0967 18.6187 92.2887 18.512C92.4807 18.3947 92.6834 18.336 92.8967 18.336C93.1847 18.336 93.4887 18.4427 93.8087 18.656C94.1287 18.8693 94.4967 19.104 94.9127 19.36C95.3287 19.616 95.8087 19.8507 96.3527 20.064C96.9074 20.2773 97.5687 20.384 98.3367 20.384C99.4567 20.384 100.321 20.128 100.929 19.616C101.547 19.104 101.857 18.3413 101.857 17.328C101.857 16.7413 101.702 16.2667 101.393 15.904C101.094 15.5413 100.699 15.2373 100.209 14.992C99.7181 14.7467 99.1581 14.5387 98.5287 14.368C97.8994 14.1867 97.2541 13.9893 96.5927 13.776C95.9314 13.5627 95.2861 13.3067 94.6567 13.008C94.0274 12.7093 93.4674 12.3147 92.9767 11.824C92.4861 11.3333 92.0861 10.7253 91.7767 10C91.4781 9.27467 91.3287 8.37333 91.3287 7.296C91.3287 6.432 91.4994 5.59467 91.8407 4.784C92.1821 3.97333 92.6834 3.25333 93.3447 2.624C94.0061 1.99467 94.8167 1.488 95.7767 1.104C96.7474 0.719998 97.8567 0.527998 99.1047 0.527998C100.502 0.527998 101.793 0.746665 102.977 1.184C104.171 1.61067 105.179 2.208 106.001 2.976L104.817 5.232ZM133.258 12.384C133.258 14.08 132.97 15.6533 132.394 17.104C131.828 18.5547 131.023 19.808 129.978 20.864C128.943 21.92 127.695 22.752 126.234 23.36C124.772 23.9573 123.151 24.256 121.37 24.256C119.588 24.256 117.967 23.9573 116.506 23.36C115.044 22.752 113.791 21.92 112.746 20.864C111.7 19.808 110.89 18.5547 110.314 17.104C109.748 15.6533 109.466 14.08 109.466 12.384C109.466 10.688 109.748 9.12 110.314 7.68C110.89 6.22933 111.7 4.976 112.746 3.92C113.791 2.864 115.044 2.03733 116.506 1.44C117.967 0.831998 119.588 0.527998 121.37 0.527998C123.151 0.527998 124.772 0.831998 126.234 1.44C127.695 2.03733 128.943 2.86933 129.978 3.936C131.023 4.992 131.828 6.24533 132.394 7.696C132.97 9.136 133.258 10.6987 133.258 12.384ZM128.346 12.384C128.346 11.168 128.186 10.08 127.866 9.12C127.546 8.14933 127.082 7.328 126.474 6.656C125.876 5.97333 125.146 5.456 124.282 5.104C123.428 4.74133 122.458 4.56 121.37 4.56C120.282 4.56 119.306 4.74133 118.442 5.104C117.578 5.456 116.842 5.97333 116.234 6.656C115.636 7.328 115.178 8.14933 114.858 9.12C114.538 10.08 114.378 11.168 114.378 12.384C114.378 13.6107 114.538 14.7093 114.858 15.68C115.178 16.64 115.636 17.456 116.234 18.128C116.842 18.8 117.578 19.3173 118.442 19.68C119.306 20.032 120.282 20.208 121.37 20.208C122.458 20.208 123.428 20.032 124.282 19.68C125.146 19.3173 125.876 18.8 126.474 18.128C127.082 17.456 127.546 16.64 127.866 15.68C128.186 14.7093 128.346 13.6107 128.346 12.384ZM157.611 0.783998V24H155.131C154.758 24 154.443 23.9413 154.187 23.824C153.931 23.696 153.681 23.4827 153.435 23.184L141.867 8.464C141.899 8.83733 141.921 9.20533 141.931 9.568C141.953 9.93067 141.963 10.2667 141.963 10.576V24H137.723V0.783998H140.251C140.454 0.783998 140.625 0.794665 140.763 0.815998C140.913 0.826665 141.046 0.863999 141.163 0.927999C141.281 0.981333 141.393 1.056 141.499 1.152C141.606 1.248 141.723 1.376 141.851 1.536L153.499 16.32C153.457 15.9147 153.425 15.5253 153.403 15.152C153.382 14.768 153.371 14.4053 153.371 14.064V0.783998H157.611Z" fill="#181919"/>
</svg>
