<svg width="35" height="35" viewBox="0 0 35 35" fill="none" xmlns="http://www.w3.org/2000/svg">
<path d="M28.7 2.79999H6.29999C4.36799 2.79999 2.79999 4.36799 2.79999 6.29999V28.7C2.79999 30.632 4.36799 32.2 6.29999 32.2H28.7C30.632 32.2 32.2 30.632 32.2 28.7V6.29999C32.2 4.36799 30.632 2.79999 28.7 2.79999ZM11.9 14V27.3H7.69999V14H11.9ZM7.69999 10.129C7.69999 9.14899 8.53999 8.39999 9.79999 8.39999C11.06 8.39999 11.851 9.14899 11.9 10.129C11.9 11.109 11.116 11.9 9.79999 11.9C8.53999 11.9 7.69999 11.109 7.69999 10.129ZM27.3 27.3H23.1C23.1 27.3 23.1 20.818 23.1 20.3C23.1 18.9 22.4 17.5 20.65 17.472H20.594C18.9 17.472 18.2 18.914 18.2 20.3C18.2 20.937 18.2 27.3 18.2 27.3H14V14H18.2V15.792C18.2 15.792 19.551 14 22.267 14C25.046 14 27.3 15.911 27.3 19.782V27.3Z" fill="#C3CAD1"/>
</svg>
